<svg width="472" height="273" viewBox="0 0 472 273" fill="none" xmlns="http://www.w3.org/2000/svg">
<path d="M101.461 273L106.891 244.648L79.6224 254.122L101.461 273ZM218.856 198.829L218.949 201.327L218.856 198.829ZM6.84969 87.5714L9.232 88.3294L6.84969 87.5714ZM180.808 239.005C180.808 246.369 186.778 252.338 194.141 252.338C201.505 252.338 207.475 246.369 207.475 239.005C207.475 231.641 201.505 225.671 194.141 225.671C186.778 225.671 180.808 231.641 180.808 239.005ZM96.576 251.746C96.5891 241.543 102.315 229.97 120.545 220.353C138.885 210.678 169.634 203.154 218.949 201.327L218.764 196.33C169.15 198.168 137.524 205.743 118.213 215.931C98.7919 226.176 91.5921 239.227 91.576 251.74L96.576 251.746ZM218.949 201.327C302.279 198.239 373.732 192.837 418.952 176.848C441.559 168.855 458.116 158.046 466.086 143.071C474.129 127.958 473.082 109.293 462.076 86.4848L457.573 88.6579C468.191 110.662 468.689 127.537 461.672 140.722C454.582 154.044 439.473 164.289 417.285 172.134C372.913 187.823 302.257 193.237 218.764 196.33L218.949 201.327ZM462.076 86.4848C440.029 40.8006 402.963 18.7996 356.479 8.63971C310.166 -1.48285 254.218 0.0866649 194.077 1.62931L194.205 6.62766C254.549 5.07982 309.817 3.55886 355.411 13.5244C400.835 23.4526 436.368 44.7183 457.573 88.6579L462.076 86.4848ZM194.077 1.62931C133.54 3.1821 89.0685 15.4632 58.2656 31.8371C27.506 48.1879 10.2261 68.7145 4.46737 86.8134L9.232 88.3294C14.4732 71.8568 30.5972 52.2072 60.6125 36.2521C90.5844 20.32 134.258 8.16534 194.205 6.62766L194.077 1.62931ZM4.46737 86.8134C-1.34874 105.093 -3.99505 146.106 20.0529 181.469C44.2303 217.022 94.8831 246.162 194.258 241.502L194.024 236.507C95.6823 241.119 47.0475 212.273 24.1875 178.657C1.19813 144.851 3.76467 105.512 9.232 88.3294L4.46737 86.8134Z" fill="#0D83EF"/>
</svg>
